<svg width="67" height="52" viewBox="0 0 67 52" fill="none" xmlns="http://www.w3.org/2000/svg">
<path d="M26.8575 7.26388L15.3787 7.4688C15.3414 7.4688 15.3041 7.47501 15.269 7.48536L11.548 8.6052C11.3066 8.67765 11.0565 8.51206 11.0499 8.27194L10.8591 2.37259C10.8525 2.16974 11.0258 2 11.2408 2H25.1967C26.32 2 27.2305 2.85903 27.2305 3.91884V6.90164C27.2305 7.09828 27.0638 7.25767 26.8553 7.26181L26.8575 7.26388Z" fill="#FF8A2B" stroke="#782A16" stroke-width="3" stroke-miterlimit="10"/>
<path d="M54.0499 7.25761H12.9501C6.90254 7.25761 2 11.883 2 17.5887V39.6688C2 45.3746 6.90254 50 12.9501 50H54.0499C60.0975 50 65 45.3746 65 39.6688V17.5887C65 11.883 60.0975 7.25761 54.0499 7.25761Z" fill="#FFD700" stroke="#782A16" stroke-width="4" stroke-miterlimit="10"/>
<path d="M53.3941 14.2147C55.7921 14.2147 57.736 13.4993 57.736 12.6167C57.736 11.7342 55.7921 11.0187 53.3941 11.0187C50.9962 11.0187 49.0522 11.7342 49.0522 12.6167C49.0522 13.4993 50.9962 14.2147 53.3941 14.2147Z" fill="white" stroke="#782A16" stroke-width="2" stroke-miterlimit="10"/>
<path d="M42.4019 16.4C40.5117 16.4 38.978 18.3014 38.978 20.6466V29.4286H45.8259V20.6466C45.8259 18.3014 44.2921 16.4 42.4019 16.4Z" fill="#231F20"/>
<path d="M23.9132 16.4C22.023 16.4 20.4893 18.3014 20.4893 20.6466V29.4286H27.3371V20.6466C27.3371 18.3014 25.8034 16.4 23.9132 16.4Z" fill="#231F20"/>
<path d="M46.5113 29.9815H19.3126C16.2809 29.9815 13.8232 32.3002 13.8232 35.1605C13.8232 38.0208 16.2809 40.3395 19.3126 40.3395H46.5113C49.5429 40.3395 52.0006 38.0208 52.0006 35.1605C52.0006 32.3002 49.5429 29.9815 46.5113 29.9815Z" fill="#FF8A2B" stroke="#782A16" stroke-width="3" stroke-miterlimit="10"/>
<path d="M41.1737 31.2773C40.7787 31.3539 40.9148 32.4303 41.3185 32.4199C42.8301 32.3806 44.605 32.1177 46.6235 32.5069C50.3028 33.2189 49.6292 33.1361 50.6099 33.4984C50.5178 33.397 47.8784 29.9733 41.1737 31.2773Z" fill="white"/>
</svg>
